PathFileType	4	(X/Y/Z)	6_coords_data.trc
DataRate	CameraRate	NumFrames	NumMarkers	Units	OrigDataRate	OrigDataStartFrame	OrigNumFrames
30.0	30.0	5	21	m	30.0	51	60
Frame#	Time	THUMB_TIP	THUMB_IP	THUMB_MCP	THUMB_CMC	INDEX_TIP	INDEX_DIP	INDEX_PIP	INDEX_MCP	MIDDLE_TIP	MIDDLE_DIP	MIDDLE_PIP	MIDDLE_MCP	RING_TIP	RING_DIP	RING_PIP	RING_MCP	PINKY_TIP	PINKY_DIP	PINKY_PIP	PINKY_MCP	WRIST
X1	Y1	Z1	X2	Y2	Z2	X3	Y3	Z3	X4	Y4	Z4	X5	Y5	Z5	X6	Y6	Z6	X7	Y7	Z7	X8	Y8	Z8	X9	Y9	Z9	X10	Y10	Z10	X11	Y11	Z11	X12	Y12	Z12	X13	Y13	Z13	X14	Y14	Z14	X15	Y15	Z15	X16	Y16	Z16	X17	Y17	Z17	X18	Y18	Z18	X19	Y19	Z19	X20	Y20	Z20	X21	Y21	Z21
49	1.6666666666666594	0.5719312610937508	0.032265663598914696	-0.04713086098632746	0.5523464937357988	0.02026464400378092	-0.047773057383170114	0.5312520404027703	-0.0017635485175652166	-0.053986170356808166	0.48855791642576735	-0.012699832256841792	-0.047094184009583206	0.5725640852756553	0.09837741032117941	-0.06676347128136267	0.5618347445821354	0.08473872835457852	-0.07194686809197764	0.5468334969157588	0.06528673034654275	-0.07729403322383985	0.5211839059072116	0.03134018114209991	-0.07912880083980853	0.5566856019036084	0.1105020485564916	-0.04287612562938509	0.5450299238875441	0.10073432931617998	-0.052711613966437004	0.5267273100894935	0.08197792613548194	-0.0654639164206022	0.5023697872601927	0.04510162940953388	-0.07202118280225248	0.5310391167974025	0.11847893861924896	-0.029181813693811343	0.5202164229142965	0.10644207594111199	-0.037118011396757966	0.5066003460013868	0.0879490299076855	-0.04675075124102343	0.48983624917108126	0.05211179550148726	-0.05508012826330705	0.4944654749937244	0.11467216302334027	-0.009589859195019701	0.4913159147791547	0.09872944111936	-0.014966650872883458	0.48671163137174145	0.07963973130863033	-0.022396023164427015	0.4793841698740764	0.04704865306960093	-0.03599798545733529	0.4622830810018609	-0.023011742144276925	-0.051989820119430985
50	1.6999999999999926	0.5726974649586071	0.031017928708024	-0.04701576961025755	0.5527295176794049	0.019648892796881534	-0.047177336643296014	0.5313539773054353	-0.002086462450826221	-0.05346069609320259	0.48854012966312366	-0.012751575094339773	-0.0468941275553669	0.5723879168666145	0.09927383940170709	-0.06841999508239677	0.5617747127898574	0.08532567778025957	-0.07298164901568477	0.5469506844954818	0.0655343714211436	-0.07751620640612211	0.5215624520309116	0.03135094818999018	-0.07826941456114073	0.5546820406363028	0.11490828434221845	-0.04691056735597515	0.5435613040398529	0.1035235128329004	-0.0555544203876388	0.5261766306692808	0.08284975572716136	-0.06649875448942072	0.5028310073832657	0.04505275656129015	-0.07124392555510478	0.528131152709413	0.12170967483608719	-0.03150066854692271	0.5182029544600126	0.10844887632257827	-0.03861277810068556	0.5057737617890699	0.08861232404284458	-0.04711020960685114	0.49032919899670646	0.05195558299098024	-0.05435380330123435	0.4932871116573202	0.11500880670865843	-0.00966977105777228	0.4904121605609091	0.09898249128038483	-0.014951046470655316	0.48619790220531967	0.07974253562231315	-0.022222645454908152	0.4794673793837292	0.04694393083893211	-0.03563290413293599	0.4622830810018609	-0.023011742144276925	-0.05198982011943101
52	1.733333333333334	0.573311181885827	0.0299236519354642	-0.04705351975210234	0.5530606177855413	0.019067168126698175	-0.046826775556531086	0.5314605860552929	-0.002414650082098402	-0.053213489554862714	0.48856263185066195	-0.01284564360180751	-0.0468220969641065	0.5722774477933611	0.09988026727081278	-0.07014703766076005	0.5617314212033377	0.08570590908932851	-0.07413061561349404	0.5470225824199756	0.0656729782674974	-0.07791764311970453	0.5218165032046203	0.03134746930323862	-0.07769606032744814	0.5531605538538323	0.11794186215762836	-0.05036943036389466	0.5425417569470994	0.1053375896697567	-0.05787765700572159	0.5258613412011409	0.08336754568181526	-0.06728459315464397	0.5031722179215448	0.04502358948607277	-0.07061515302683663	0.5260659585284764	0.12387171483576176	-0.03333705550612295	0.516907584157674	0.10969417986495489	-0.03967122325222672	0.5053892810521167	0.0889427899435915	-0.04721366906907232	0.49077883341990447	0.051803841194721256	-0.05369087061103267	0.49276555991940485	0.11522555928564449	-0.009857680426920312	0.49004992363185224	0.09912628177280602	-0.014999526702173971	0.48607651194230267	0.07976497417770101	-0.022082166517460478	0.47968300455527785	0.04679805481919719	-0.03524228590529169	0.4622830810018609	-0.023011742144276925	-0.051989820119430985
53	1.7666666666666675	0.5738480571036326	0.028941388392986434	-0.047335017472748486	0.5533719278022948	0.018531008883593603	-0.04674161431695112	0.5315585582859663	-0.002716181420959418	-0.053187839142864596	0.4886075281124202	-0.012953410146715583	-0.04683975635767018	0.5721968954713812	0.10028748940619647	-0.07175793436779548	0.5616895913475523	0.08595311318645771	-0.0752396320054938	0.5470554423550971	0.06575418420125523	-0.07837886505153804	0.5219650671707761	0.03135948578484671	-0.07732345614769875	0.5518481868162632	0.12022119190350644	-0.05348447133900738	0.541733615339171	0.1066513958286649	-0.05993087175489925	0.5256714562810056	0.08369657634213934	-0.06796161634872294	0.5034311240637852	0.04500628894831582	-0.0701010567547665	0.5245416895505371	0.1253918743722111	-0.03487957803408889	0.516037646298668	0.11052695105387811	-0.04051121217618503	0.5052490529510081	0.08910772648826548	-0.047219643556670604	0.491198252319636	0.05165395372766468	-0.05309422793471141	0.4927110163477425	0.11532261756150675	-0.010018672229040959	0.49006818300753074	0.09917083033774443	-0.01503217414029756	0.48622087646944123	0.07972196631491402	-0.02194245196564082	0.4799797094157029	0.046631127305070796	-0.03486250066647659	0.4622830810018609	-0.023011742144276925	-0.051989820119430985
54	1.8000000000000007	0.5742975528703926	0.028111772006328195	-0.04789268360805818	0.5536499790712768	0.018074342809637156	-0.04692950588225625	0.5316382072400381	-0.002971297385046867	-0.05336246240669959	0.48866614623661686	-0.013063923697548607	-0.04692578102306341	0.5721240558362726	0.10054355635587198	-0.0731386227059537	0.5616351138772447	0.08610483503337862	-0.07622170933326741	0.5470451807066565	0.06580057301555486	-0.0788448042589864	0.5220253374319705	0.031380814091871434	-0.07713491182211574	0.5508004795808594	0.1218360560115459	-0.056108407120790654	0.5411363547811001	0.10755057782788491	-0.06163378538103917	0.525571095927779	0.08388924228745698	-0.06850935570446623	0.5036103718100506	0.04499937828315426	-0.06971475810693217	0.523542855708529	0.1263799265698805	-0.03605870842118519	0.5155502812286048	0.11102892080167637	-0.04110503134856777	0.5052950677728618	0.0891532291187439	-0.0471436312997508	0.4915667892790264	0.05151593266020971	-0.05259240353651379	0.4930133168369022	0.11531726416507015	-0.01012092234577644	0.4903718921952701	0.09913331792622015	-0.015030378527534083	0.4865502468587191	0.0796309062660806	-0.021802600124622096	0.480309308823783	0.04646073924723715	-0.034517715672116034	0.46228308100186094	-0.023011742144276925	-0.051989820119430985
